<svg width="1600" height="1200" viewBox="0 0 1600 1200" fill="none" xmlns="http://www.w3.org/2000/svg">
  <defs>
    <linearGradient id="campusSky" x1="800" y1="0" x2="800" y2="1200" gradientUnits="userSpaceOnUse">
      <stop offset="0" stop-color="#0A2540" />
      <stop offset="0.55" stop-color="#0E3A5C" />
      <stop offset="1" stop-color="#133E58" />
    </linearGradient>
    <linearGradient id="glassTower" x1="0" y1="0" x2="0" y2="1">
      <stop offset="0" stop-color="#9ED8FF" stop-opacity="0.92" />
      <stop offset="1" stop-color="#3B82B2" stop-opacity="0.88" />
    </linearGradient>
    <linearGradient id="learningHub" x1="0" y1="0" x2="0" y2="1">
      <stop offset="0" stop-color="#D4F2FF" stop-opacity="0.95" />
      <stop offset="1" stop-color="#6CA7C8" stop-opacity="0.85" />
    </linearGradient>
    <linearGradient id="ground" x1="0" y1="0" x2="1" y2="0">
      <stop offset="0" stop-color="#10324A" />
      <stop offset="1" stop-color="#145275" />
    </linearGradient>
    <radialGradient id="glowA" cx="0" cy="0" r="1" gradientUnits="userSpaceOnUse" gradientTransform="translate(320 260) rotate(35) scale(430 230)">
      <stop stop-color="#44C6FF" stop-opacity="0.38" />
      <stop offset="1" stop-color="#44C6FF" stop-opacity="0" />
    </radialGradient>
    <radialGradient id="glowB" cx="0" cy="0" r="1" gradientUnits="userSpaceOnUse" gradientTransform="translate(1320 170) rotate(155) scale(420 250)">
      <stop stop-color="#58E0B0" stop-opacity="0.34" />
      <stop offset="1" stop-color="#58E0B0" stop-opacity="0" />
    </radialGradient>
  </defs>

  <rect width="1600" height="1200" fill="url(#campusSky)" />
  <rect width="1600" height="1200" fill="url(#glowA)" />
  <rect width="1600" height="1200" fill="url(#glowB)" />

  <g opacity="0.11" stroke="#BEE6FF" stroke-width="1">
    <path d="M0 130H1600" />
    <path d="M0 250H1600" />
    <path d="M0 370H1600" />
    <path d="M0 490H1600" />
    <path d="M0 610H1600" />
    <path d="M0 730H1600" />
    <path d="M0 850H1600" />
    <path d="M0 970H1600" />
    <path d="M180 0V1200" />
    <path d="M360 0V1200" />
    <path d="M540 0V1200" />
    <path d="M720 0V1200" />
    <path d="M900 0V1200" />
    <path d="M1080 0V1200" />
    <path d="M1260 0V1200" />
    <path d="M1440 0V1200" />
  </g>

  <path d="M0 860L210 810L430 860L610 820L780 860L980 800L1160 860L1320 820L1600 860V1200H0V860Z" fill="url(#ground)" opacity="0.92" />

  <g opacity="0.95">
    <rect x="270" y="430" width="190" height="430" rx="16" fill="url(#glassTower)" />
    <rect x="500" y="350" width="250" height="510" rx="18" fill="url(#learningHub)" />
    <rect x="780" y="390" width="165" height="470" rx="14" fill="url(#glassTower)" />
    <rect x="970" y="460" width="210" height="400" rx="16" fill="url(#learningHub)" />
    <rect x="1210" y="410" width="120" height="450" rx="12" fill="url(#glassTower)" />
  </g>

  <g stroke="#E7F7FF" stroke-opacity="0.66" stroke-width="3">
    <path d="M536 392V844" />
    <path d="M584 392V844" />
    <path d="M632 392V844" />
    <path d="M680 392V844" />
    <path d="M728 392V844" />
    <path d="M306 468H424" />
    <path d="M306 548H424" />
    <path d="M306 628H424" />
    <path d="M306 708H424" />
    <path d="M806 458H918" />
    <path d="M806 538H918" />
    <path d="M806 618H918" />
    <path d="M806 698H918" />
    <path d="M998 516H1146" />
    <path d="M998 596H1146" />
    <path d="M998 676H1146" />
    <path d="M998 756H1146" />
  </g>

  <g opacity="0.82" stroke="#7EE7C2" stroke-width="4" stroke-linecap="round">
    <path d="M460 845C540 760 650 745 740 770C824 792 886 850 970 850" />
    <path d="M970 850C1042 850 1098 812 1148 758" />
    <path d="M748 770C748 708 790 658 848 638" />
    <circle cx="460" cy="845" r="7" fill="#7EE7C2" />
    <circle cx="740" cy="770" r="7" fill="#7EE7C2" />
    <circle cx="848" cy="638" r="7" fill="#7EE7C2" />
    <circle cx="970" cy="850" r="7" fill="#7EE7C2" />
    <circle cx="1148" cy="758" r="7" fill="#7EE7C2" />
  </g>

  <g opacity="0.88" fill="#E7F7FF">
    <rect x="570" y="278" width="108" height="52" rx="10" />
    <rect x="1038" y="388" width="72" height="40" rx="8" />
    <rect x="302" y="374" width="70" height="40" rx="8" />
  </g>

  <g opacity="0.72" stroke="#9FE0FF" stroke-width="5" stroke-linecap="round">
    <path d="M624 238C674 194 754 194 804 238" />
    <path d="M649 272C686 241 742 241 779 272" />
    <path d="M675 304C701 284 727 284 753 304" />
  </g>

  <g opacity="0.7" fill="#AEE8FF">
    <circle cx="200" cy="1030" r="90" />
    <circle cx="1430" cy="220" r="74" />
    <circle cx="1320" cy="980" r="120" />
  </g>
</svg>
